<?xml version="1.0" encoding="UTF-8" standalone="no"?>
<!DOCTYPE svg PUBLIC "-//W3C//DTD SVG 1.1//EN"
 "http://www.w3.org/Graphics/SVG/1.1/DTD/svg11.dtd">
<!-- Generated by graphviz version 2.43.0 (0)
 -->
<!-- Title: MyGraph Pages: 1 -->
<svg width="244pt" height="79pt"
 viewBox="0.00 0.00 244.00 79.00" xmlns="http://www.w3.org/2000/svg" xmlns:xlink="http://www.w3.org/1999/xlink">
<g id="graph0" class="graph" transform="scale(1 1) rotate(0) translate(4 75)">
<title>MyGraph</title>
<polygon fill="white" stroke="transparent" points="-4,4 -4,-75 240,-75 240,4 -4,4"/>
<!-- 0 -->
<g id="node1" class="node">
<title>0</title>
<ellipse fill="none" stroke="black" cx="18" cy="-35" rx="18" ry="18"/>
<text text-anchor="middle" x="18" y="-31.3" font-family="Helvetica,Arial,sans-serif" font-size="14.00">0</text>
</g>
<!-- 1 -->
<g id="node2" class="node">
<title>1</title>
<ellipse fill="none" stroke="black" cx="118" cy="-53" rx="18" ry="18"/>
<text text-anchor="middle" x="118" y="-49.3" font-family="Helvetica,Arial,sans-serif" font-size="14.00">1</text>
</g>
<!-- 0&#45;&gt;1 -->
<g id="edge1" class="edge">
<title>0&#45;&gt;1</title>
<path fill="none" stroke="black" d="M34.21,-43.55C40.19,-46.48 47.23,-49.41 54,-51 65.55,-53.71 78.61,-54.48 89.83,-54.47"/>
<polygon fill="black" stroke="black" points="89.99,-57.97 99.92,-54.26 89.85,-50.97 89.99,-57.97"/>
<text text-anchor="middle" x="68" y="-57.8" font-family="Helvetica,Arial,sans-serif" font-size="14.00">(2,2)</text>
</g>
<!-- 2 -->
<g id="node3" class="node">
<title>2</title>
<ellipse fill="none" stroke="black" cx="218" cy="-18" rx="18" ry="18"/>
<text text-anchor="middle" x="218" y="-14.3" font-family="Helvetica,Arial,sans-serif" font-size="14.00">2</text>
</g>
<!-- 0&#45;&gt;2 -->
<g id="edge2" class="edge">
<title>0&#45;&gt;2</title>
<path fill="none" stroke="black" d="M35.13,-28.72C51.26,-22.79 76.92,-14.35 100,-11 130.74,-6.54 166.41,-9.89 190.21,-13.32"/>
<polygon fill="black" stroke="black" points="189.83,-16.8 200.25,-14.87 190.9,-9.88 189.83,-16.8"/>
<text text-anchor="middle" x="118" y="-14.8" font-family="Helvetica,Arial,sans-serif" font-size="14.00">(4,4)</text>
</g>
<!-- 1&#45;&gt;0 -->
<g id="edge4" class="edge">
<title>1&#45;&gt;0</title>
<path fill="none" stroke="black" d="M103.16,-42.33C97.03,-38.25 89.51,-34.08 82,-32 70.48,-28.81 57.34,-28.89 46.05,-30.02"/>
<polygon fill="black" stroke="black" points="45.35,-26.58 35.9,-31.36 46.27,-33.52 45.35,-26.58"/>
<text text-anchor="middle" x="68" y="-35.8" font-family="Helvetica,Arial,sans-serif" font-size="14.00">(0,4)</text>
</g>
<!-- 1&#45;&gt;2 -->
<g id="edge3" class="edge">
<title>1&#45;&gt;2</title>
<path fill="none" stroke="black" d="M135.18,-47.22C150.36,-41.8 173.32,-33.6 191.05,-27.27"/>
<polygon fill="black" stroke="black" points="192.55,-30.45 200.79,-23.79 190.2,-23.86 192.55,-30.45"/>
<text text-anchor="middle" x="168" y="-42.8" font-family="Helvetica,Arial,sans-serif" font-size="14.00">(2,3)</text>
</g>
</g>
</svg>
