<?xml version="1.0" encoding="UTF-8" standalone="no"?>
<!DOCTYPE svg PUBLIC "-//W3C//DTD SVG 1.1//EN"
 "http://www.w3.org/Graphics/SVG/1.1/DTD/svg11.dtd">
<!-- Generated by graphviz version 2.43.0 (0)
 -->
<!-- Title: MyGraph Pages: 1 -->
<svg width="468pt" height="141pt"
 viewBox="0.00 0.00 468.00 141.00" xmlns="http://www.w3.org/2000/svg" xmlns:xlink="http://www.w3.org/1999/xlink">
<g id="graph0" class="graph" transform="scale(1 1) rotate(0) translate(4 137)">
<title>MyGraph</title>
<polygon fill="white" stroke="transparent" points="-4,4 -4,-137 464,-137 464,4 -4,4"/>
<!-- 3 -->
<g id="node1" class="node">
<title>3</title>
<ellipse fill="none" stroke="black" cx="234" cy="-18" rx="18" ry="18"/>
<text text-anchor="middle" x="234" y="-14.3" font-family="Helvetica,Arial,sans-serif" font-size="14.00">3</text>
</g>
<!-- 5 -->
<g id="node2" class="node">
<title>5</title>
<ellipse fill="none" stroke="black" cx="442" cy="-25" rx="18" ry="18"/>
<text text-anchor="middle" x="442" y="-21.3" font-family="Helvetica,Arial,sans-serif" font-size="14.00">5</text>
</g>
<!-- 3&#45;&gt;5 -->
<g id="edge1" class="edge">
<title>3&#45;&gt;5</title>
<path fill="none" stroke="black" d="M252.21,-18.58C288.05,-19.8 370.91,-22.62 413.95,-24.08"/>
<polygon fill="black" stroke="black" points="413.87,-27.58 423.98,-24.42 414.11,-20.58 413.87,-27.58"/>
<text text-anchor="middle" x="342" y="-25.8" font-family="Helvetica,Arial,sans-serif" font-size="14.00">(2,2)</text>
</g>
<!-- 4 -->
<g id="node3" class="node">
<title>4</title>
<ellipse fill="none" stroke="black" cx="342" cy="-66" rx="18" ry="18"/>
<text text-anchor="middle" x="342" y="-62.3" font-family="Helvetica,Arial,sans-serif" font-size="14.00">4</text>
</g>
<!-- 3&#45;&gt;4 -->
<g id="edge2" class="edge">
<title>3&#45;&gt;4</title>
<path fill="none" stroke="black" d="M251.53,-22.57C266.22,-26.93 288.08,-34.12 306,-43 310.22,-45.09 314.54,-47.59 318.65,-50.17"/>
<polygon fill="black" stroke="black" points="316.89,-53.2 327.16,-55.79 320.74,-47.36 316.89,-53.2"/>
<text text-anchor="middle" x="288" y="-46.8" font-family="Helvetica,Arial,sans-serif" font-size="14.00">(0,20)</text>
</g>
<!-- 4&#45;&gt;5 -->
<g id="edge3" class="edge">
<title>4&#45;&gt;5</title>
<path fill="none" stroke="black" d="M359.18,-59.23C374.6,-52.78 398.02,-42.98 415.87,-35.51"/>
<polygon fill="black" stroke="black" points="417.24,-38.73 425.12,-31.64 414.54,-32.28 417.24,-38.73"/>
<text text-anchor="middle" x="392" y="-53.8" font-family="Helvetica,Arial,sans-serif" font-size="14.00">(1,1)</text>
</g>
<!-- 2 -->
<g id="node4" class="node">
<title>2</title>
<ellipse fill="none" stroke="black" cx="126" cy="-61" rx="18" ry="18"/>
<text text-anchor="middle" x="126" y="-57.3" font-family="Helvetica,Arial,sans-serif" font-size="14.00">2</text>
</g>
<!-- 2&#45;&gt;3 -->
<g id="edge5" class="edge">
<title>2&#45;&gt;3</title>
<path fill="none" stroke="black" d="M142.12,-52.65C148.2,-49.44 155.35,-45.87 162,-43 176.63,-36.7 193.43,-30.73 207.01,-26.2"/>
<polygon fill="black" stroke="black" points="208.27,-29.48 216.69,-23.04 206.09,-22.82 208.27,-29.48"/>
<text text-anchor="middle" x="180" y="-46.8" font-family="Helvetica,Arial,sans-serif" font-size="14.00">(2,20)</text>
</g>
<!-- 2&#45;&gt;4 -->
<g id="edge4" class="edge">
<title>2&#45;&gt;4</title>
<path fill="none" stroke="black" d="M144.15,-61.4C181.17,-62.27 268.82,-64.31 313.61,-65.36"/>
<polygon fill="black" stroke="black" points="313.69,-68.86 323.77,-65.6 313.85,-61.86 313.69,-68.86"/>
<text text-anchor="middle" x="234" y="-66.8" font-family="Helvetica,Arial,sans-serif" font-size="14.00">(1,33)</text>
</g>
<!-- 1 -->
<g id="node5" class="node">
<title>1</title>
<ellipse fill="none" stroke="black" cx="126" cy="-115" rx="18" ry="18"/>
<text text-anchor="middle" x="126" y="-111.3" font-family="Helvetica,Arial,sans-serif" font-size="14.00">1</text>
</g>
<!-- 1&#45;&gt;3 -->
<g id="edge7" class="edge">
<title>1&#45;&gt;3</title>
<path fill="none" stroke="black" d="M141.73,-105.64C156.72,-95.76 180.22,-79.24 198,-62 204.65,-55.55 211.18,-47.84 216.76,-40.69"/>
<polygon fill="black" stroke="black" points="219.59,-42.74 222.83,-32.66 214.01,-38.52 219.59,-42.74"/>
<text text-anchor="middle" x="180" y="-94.8" font-family="Helvetica,Arial,sans-serif" font-size="14.00">(0,50)</text>
</g>
<!-- 1&#45;&gt;4 -->
<g id="edge6" class="edge">
<title>1&#45;&gt;4</title>
<path fill="none" stroke="black" d="M144.06,-114.84C158.52,-114.45 179.76,-113.3 198,-110 247.26,-101.08 258.31,-93.23 306,-78 308.96,-77.05 312.06,-76.04 315.13,-75.01"/>
<polygon fill="black" stroke="black" points="316.33,-78.3 324.67,-71.76 314.07,-71.67 316.33,-78.3"/>
<text text-anchor="middle" x="234" y="-109.8" font-family="Helvetica,Arial,sans-serif" font-size="14.00">(0,10)</text>
</g>
<!-- 0 -->
<g id="node6" class="node">
<title>0</title>
<ellipse fill="none" stroke="black" cx="18" cy="-88" rx="18" ry="18"/>
<text text-anchor="middle" x="18" y="-84.3" font-family="Helvetica,Arial,sans-serif" font-size="14.00">0</text>
</g>
<!-- 0&#45;&gt;2 -->
<g id="edge8" class="edge">
<title>0&#45;&gt;2</title>
<path fill="none" stroke="black" d="M34.8,-80.9C40.73,-78.45 47.59,-75.85 54,-74 68.25,-69.89 84.5,-66.8 97.86,-64.67"/>
<polygon fill="black" stroke="black" points="98.49,-68.11 107.85,-63.16 97.44,-61.19 98.49,-68.11"/>
<text text-anchor="middle" x="72" y="-77.8" font-family="Helvetica,Arial,sans-serif" font-size="14.00">(3,20)</text>
</g>
<!-- 0&#45;&gt;1 -->
<g id="edge9" class="edge">
<title>0&#45;&gt;1</title>
<path fill="none" stroke="black" d="M35.56,-92.22C52.34,-96.49 78.57,-103.17 98.29,-108.2"/>
<polygon fill="black" stroke="black" points="97.65,-111.65 108.2,-110.72 99.38,-104.86 97.65,-111.65"/>
<text text-anchor="middle" x="72" y="-108.8" font-family="Helvetica,Arial,sans-serif" font-size="14.00">(0,10)</text>
</g>
</g>
</svg>
