<?xml version="1.0" encoding="UTF-8" standalone="no"?>
<!DOCTYPE svg PUBLIC "-//W3C//DTD SVG 1.1//EN"
 "http://www.w3.org/Graphics/SVG/1.1/DTD/svg11.dtd">
<!-- Generated by graphviz version 2.43.0 (0)
 -->
<!-- Title: MyGraph Pages: 1 -->
<svg width="344pt" height="221pt"
 viewBox="0.00 0.00 344.00 221.00" xmlns="http://www.w3.org/2000/svg" xmlns:xlink="http://www.w3.org/1999/xlink">
<g id="graph0" class="graph" transform="scale(1 1) rotate(0) translate(4 217)">
<title>MyGraph</title>
<polygon fill="white" stroke="transparent" points="-4,4 -4,-217 340,-217 340,4 -4,4"/>
<!-- 9 -->
<g id="node1" class="node">
<title>9</title>
<ellipse fill="none" stroke="black" cx="218" cy="-195" rx="18" ry="18"/>
<text text-anchor="middle" x="218" y="-191.3" font-family="Helvetica,Arial,sans-serif" font-size="14.00">9</text>
</g>
<!-- 1 -->
<g id="node2" class="node">
<title>1</title>
<ellipse fill="none" stroke="black" cx="318" cy="-101" rx="18" ry="18"/>
<text text-anchor="middle" x="318" y="-97.3" font-family="Helvetica,Arial,sans-serif" font-size="14.00">1</text>
</g>
<!-- 9&#45;&gt;1 -->
<g id="edge1" class="edge">
<title>9&#45;&gt;1</title>
<path fill="none" stroke="black" d="M232.23,-183.21C245.11,-171.64 265.17,-153.38 282,-137 287.2,-131.94 292.73,-126.35 297.81,-121.13"/>
<polygon fill="black" stroke="black" points="300.43,-123.46 304.86,-113.83 295.39,-118.59 300.43,-123.46"/>
<text text-anchor="middle" x="268" y="-165.8" font-family="Helvetica,Arial,sans-serif" font-size="14.00">(0,1)</text>
</g>
<!-- 8 -->
<g id="node3" class="node">
<title>8</title>
<ellipse fill="none" stroke="black" cx="218" cy="-130" rx="18" ry="18"/>
<text text-anchor="middle" x="218" y="-126.3" font-family="Helvetica,Arial,sans-serif" font-size="14.00">8</text>
</g>
<!-- 8&#45;&gt;1 -->
<g id="edge2" class="edge">
<title>8&#45;&gt;1</title>
<path fill="none" stroke="black" d="M235.62,-125.08C250.78,-120.6 273.42,-113.9 290.97,-108.7"/>
<polygon fill="black" stroke="black" points="292.03,-112.04 300.62,-105.85 290.04,-105.33 292.03,-112.04"/>
<text text-anchor="middle" x="268" y="-121.8" font-family="Helvetica,Arial,sans-serif" font-size="14.00">(0,1)</text>
</g>
<!-- 7 -->
<g id="node4" class="node">
<title>7</title>
<ellipse fill="none" stroke="black" cx="218" cy="-73" rx="18" ry="18"/>
<text text-anchor="middle" x="218" y="-69.3" font-family="Helvetica,Arial,sans-serif" font-size="14.00">7</text>
</g>
<!-- 7&#45;&gt;1 -->
<g id="edge3" class="edge">
<title>7&#45;&gt;1</title>
<path fill="none" stroke="black" d="M235.73,-76.4C248.51,-79.14 266.51,-83.3 282,-88 285.16,-88.96 288.46,-90.05 291.7,-91.19"/>
<polygon fill="black" stroke="black" points="290.52,-94.48 301.11,-94.63 292.92,-87.91 290.52,-94.48"/>
<text text-anchor="middle" x="268" y="-91.8" font-family="Helvetica,Arial,sans-serif" font-size="14.00">(0,1)</text>
</g>
<!-- 6 -->
<g id="node5" class="node">
<title>6</title>
<ellipse fill="none" stroke="black" cx="218" cy="-18" rx="18" ry="18"/>
<text text-anchor="middle" x="218" y="-14.3" font-family="Helvetica,Arial,sans-serif" font-size="14.00">6</text>
</g>
<!-- 6&#45;&gt;1 -->
<g id="edge4" class="edge">
<title>6&#45;&gt;1</title>
<path fill="none" stroke="black" d="M234.03,-26.75C247.3,-34.82 266.84,-47.56 282,-61 288.08,-66.39 294.11,-72.8 299.41,-78.89"/>
<polygon fill="black" stroke="black" points="297.01,-81.48 306.13,-86.88 302.37,-76.97 297.01,-81.48"/>
<text text-anchor="middle" x="268" y="-64.8" font-family="Helvetica,Arial,sans-serif" font-size="14.00">(0,1)</text>
</g>
<!-- 3 -->
<g id="node6" class="node">
<title>3</title>
<ellipse fill="none" stroke="black" cx="118" cy="-139" rx="18" ry="18"/>
<text text-anchor="middle" x="118" y="-135.3" font-family="Helvetica,Arial,sans-serif" font-size="14.00">3</text>
</g>
<!-- 3&#45;&gt;8 -->
<g id="edge5" class="edge">
<title>3&#45;&gt;8</title>
<path fill="none" stroke="black" d="M135.65,-135.09C141.42,-133.88 147.97,-132.69 154,-132 165.7,-130.65 178.69,-130.09 189.83,-129.88"/>
<polygon fill="black" stroke="black" points="189.87,-133.38 199.83,-129.78 189.8,-126.38 189.87,-133.38"/>
<text text-anchor="middle" x="168" y="-135.8" font-family="Helvetica,Arial,sans-serif" font-size="14.00">(0,1)</text>
</g>
<!-- 4 -->
<g id="node7" class="node">
<title>4</title>
<ellipse fill="none" stroke="black" cx="118" cy="-31" rx="18" ry="18"/>
<text text-anchor="middle" x="118" y="-27.3" font-family="Helvetica,Arial,sans-serif" font-size="14.00">4</text>
</g>
<!-- 4&#45;&gt;7 -->
<g id="edge6" class="edge">
<title>4&#45;&gt;7</title>
<path fill="none" stroke="black" d="M135.19,-37.04C148,-41.92 166.28,-49.07 182,-56 185.32,-57.46 188.78,-59.05 192.18,-60.66"/>
<polygon fill="black" stroke="black" points="190.91,-63.94 201.44,-65.13 193.95,-57.63 190.91,-63.94"/>
<text text-anchor="middle" x="168" y="-59.8" font-family="Helvetica,Arial,sans-serif" font-size="14.00">(0,1)</text>
</g>
<!-- 4&#45;&gt;6 -->
<g id="edge7" class="edge">
<title>4&#45;&gt;6</title>
<path fill="none" stroke="black" d="M134.69,-23.82C140.61,-21.47 147.49,-19.17 154,-18 165.67,-15.9 178.74,-15.58 189.95,-15.91"/>
<polygon fill="black" stroke="black" points="189.86,-19.41 200.01,-16.38 190.19,-12.42 189.86,-19.41"/>
<text text-anchor="middle" x="168" y="-21.8" font-family="Helvetica,Arial,sans-serif" font-size="14.00">(0,1)</text>
</g>
<!-- 5 -->
<g id="node8" class="node">
<title>5</title>
<ellipse fill="none" stroke="black" cx="118" cy="-85" rx="18" ry="18"/>
<text text-anchor="middle" x="118" y="-81.3" font-family="Helvetica,Arial,sans-serif" font-size="14.00">5</text>
</g>
<!-- 5&#45;&gt;8 -->
<g id="edge8" class="edge">
<title>5&#45;&gt;8</title>
<path fill="none" stroke="black" d="M135,-91.06C147.85,-96.06 166.3,-103.52 182,-111 185.52,-112.67 189.18,-114.53 192.75,-116.41"/>
<polygon fill="black" stroke="black" points="191.39,-119.65 201.85,-121.32 194.71,-113.49 191.39,-119.65"/>
<text text-anchor="middle" x="168" y="-114.8" font-family="Helvetica,Arial,sans-serif" font-size="14.00">(0,1)</text>
</g>
<!-- 2 -->
<g id="node9" class="node">
<title>2</title>
<ellipse fill="none" stroke="black" cx="118" cy="-193" rx="18" ry="18"/>
<text text-anchor="middle" x="118" y="-189.3" font-family="Helvetica,Arial,sans-serif" font-size="14.00">2</text>
</g>
<!-- 2&#45;&gt;9 -->
<g id="edge10" class="edge">
<title>2&#45;&gt;9</title>
<path fill="none" stroke="black" d="M136.07,-193.35C150.88,-193.65 172.57,-194.09 189.77,-194.44"/>
<polygon fill="black" stroke="black" points="189.73,-197.94 199.8,-194.65 189.87,-190.95 189.73,-197.94"/>
<text text-anchor="middle" x="168" y="-197.8" font-family="Helvetica,Arial,sans-serif" font-size="14.00">(0,1)</text>
</g>
<!-- 2&#45;&gt;8 -->
<g id="edge9" class="edge">
<title>2&#45;&gt;8</title>
<path fill="none" stroke="black" d="M133.46,-183.7C149.38,-173.47 175.21,-156.87 193.93,-144.83"/>
<polygon fill="black" stroke="black" points="195.96,-147.69 202.48,-139.33 192.18,-141.8 195.96,-147.69"/>
<text text-anchor="middle" x="168" y="-171.8" font-family="Helvetica,Arial,sans-serif" font-size="14.00">(0,1)</text>
</g>
<!-- 0 -->
<g id="node10" class="node">
<title>0</title>
<ellipse fill="none" stroke="black" cx="18" cy="-112" rx="18" ry="18"/>
<text text-anchor="middle" x="18" y="-108.3" font-family="Helvetica,Arial,sans-serif" font-size="14.00">0</text>
</g>
<!-- 0&#45;&gt;3 -->
<g id="edge13" class="edge">
<title>0&#45;&gt;3</title>
<path fill="none" stroke="black" d="M35.62,-116.58C50.69,-120.73 73.14,-126.92 90.65,-131.74"/>
<polygon fill="black" stroke="black" points="89.72,-135.12 100.29,-134.4 91.58,-128.37 89.72,-135.12"/>
<text text-anchor="middle" x="68" y="-131.8" font-family="Helvetica,Arial,sans-serif" font-size="14.00">(0,1)</text>
</g>
<!-- 0&#45;&gt;4 -->
<g id="edge12" class="edge">
<title>0&#45;&gt;4</title>
<path fill="none" stroke="black" d="M29.81,-97.8C36.33,-89.74 45.08,-79.74 54,-72 66.02,-61.58 80.88,-51.78 93.15,-44.38"/>
<polygon fill="black" stroke="black" points="95.09,-47.3 101.94,-39.22 91.54,-41.27 95.09,-47.3"/>
<text text-anchor="middle" x="68" y="-75.8" font-family="Helvetica,Arial,sans-serif" font-size="14.00">(0,1)</text>
</g>
<!-- 0&#45;&gt;5 -->
<g id="edge11" class="edge">
<title>0&#45;&gt;5</title>
<path fill="none" stroke="black" d="M34.82,-104.98C40.75,-102.53 47.61,-99.92 54,-98 65.59,-94.52 78.66,-91.65 89.87,-89.51"/>
<polygon fill="black" stroke="black" points="90.74,-92.91 99.95,-87.68 89.49,-86.02 90.74,-92.91"/>
<text text-anchor="middle" x="68" y="-101.8" font-family="Helvetica,Arial,sans-serif" font-size="14.00">(0,1)</text>
</g>
<!-- 0&#45;&gt;2 -->
<g id="edge14" class="edge">
<title>0&#45;&gt;2</title>
<path fill="none" stroke="black" d="M30.86,-124.79C37.44,-131.64 45.91,-140.07 54,-147 66.75,-157.91 81.92,-169.04 94.18,-177.62"/>
<polygon fill="black" stroke="black" points="92.29,-180.57 102.51,-183.37 96.27,-174.81 92.29,-180.57"/>
<text text-anchor="middle" x="68" y="-171.8" font-family="Helvetica,Arial,sans-serif" font-size="14.00">(0,1)</text>
</g>
</g>
</svg>
