<?xml version="1.0" encoding="UTF-8" standalone="no"?>
<!DOCTYPE svg PUBLIC "-//W3C//DTD SVG 1.1//EN"
 "http://www.w3.org/Graphics/SVG/1.1/DTD/svg11.dtd">
<!-- Generated by graphviz version 2.43.0 (0)
 -->
<!-- Title: MyGraph Pages: 1 -->
<svg width="468pt" height="105pt"
 viewBox="0.00 0.00 468.00 105.00" xmlns="http://www.w3.org/2000/svg" xmlns:xlink="http://www.w3.org/1999/xlink">
<g id="graph0" class="graph" transform="scale(1 1) rotate(0) translate(4 101)">
<title>MyGraph</title>
<polygon fill="white" stroke="transparent" points="-4,4 -4,-101 464,-101 464,4 -4,4"/>
<!-- 3 -->
<g id="node1" class="node">
<title>3</title>
<ellipse fill="none" stroke="black" cx="18" cy="-79" rx="18" ry="18"/>
<text text-anchor="middle" x="18" y="-75.3" font-family="Helvetica,Arial,sans-serif" font-size="14.00">3</text>
</g>
<!-- 1 -->
<g id="node2" class="node">
<title>1</title>
<ellipse fill="none" stroke="black" cx="126" cy="-40" rx="18" ry="18"/>
<text text-anchor="middle" x="126" y="-36.3" font-family="Helvetica,Arial,sans-serif" font-size="14.00">1</text>
</g>
<!-- 3&#45;&gt;1 -->
<g id="edge1" class="edge">
<title>3&#45;&gt;1</title>
<path fill="none" stroke="black" d="M33.07,-68.68C39.24,-64.55 46.72,-60.06 54,-57 68.01,-51.11 84.48,-47 98.03,-44.31"/>
<polygon fill="black" stroke="black" points="98.96,-47.69 108.16,-42.44 97.69,-40.81 98.96,-47.69"/>
<text text-anchor="middle" x="72" y="-60.8" font-family="Helvetica,Arial,sans-serif" font-size="14.00">(0,5)</text>
</g>
<!-- 2 -->
<g id="node3" class="node">
<title>2</title>
<ellipse fill="none" stroke="black" cx="234" cy="-40" rx="18" ry="18"/>
<text text-anchor="middle" x="234" y="-36.3" font-family="Helvetica,Arial,sans-serif" font-size="14.00">2</text>
</g>
<!-- 1&#45;&gt;2 -->
<g id="edge2" class="edge">
<title>1&#45;&gt;2</title>
<path fill="none" stroke="black" d="M144.03,-40C160.62,-40 186.12,-40 205.57,-40"/>
<polygon fill="black" stroke="black" points="205.66,-43.5 215.66,-40 205.66,-36.5 205.66,-43.5"/>
<text text-anchor="middle" x="180" y="-43.8" font-family="Helvetica,Arial,sans-serif" font-size="14.00">(7,10)</text>
</g>
<!-- 4 -->
<g id="node4" class="node">
<title>4</title>
<ellipse fill="none" stroke="black" cx="334" cy="-63" rx="18" ry="18"/>
<text text-anchor="middle" x="334" y="-59.3" font-family="Helvetica,Arial,sans-serif" font-size="14.00">4</text>
</g>
<!-- 2&#45;&gt;4 -->
<g id="edge3" class="edge">
<title>2&#45;&gt;4</title>
<path fill="none" stroke="black" d="M251.62,-43.9C266.55,-47.4 288.72,-52.61 306.16,-56.7"/>
<polygon fill="black" stroke="black" points="305.76,-60.2 316.29,-59.08 307.36,-53.39 305.76,-60.2"/>
<text text-anchor="middle" x="284" y="-57.8" font-family="Helvetica,Arial,sans-serif" font-size="14.00">(7,7)</text>
</g>
<!-- 4&#45;&gt;3 -->
<g id="edge4" class="edge">
<title>4&#45;&gt;3</title>
<path fill="none" stroke="black" d="M316.42,-68.08C310.65,-69.63 304.09,-71.15 298,-72 206.35,-84.77 96.16,-82.38 46.11,-80.34"/>
<polygon fill="black" stroke="black" points="46.24,-76.85 36.09,-79.91 45.93,-83.84 46.24,-76.85"/>
<text text-anchor="middle" x="180" y="-84.8" font-family="Helvetica,Arial,sans-serif" font-size="14.00">(0,5)</text>
</g>
<!-- 5 -->
<g id="node5" class="node">
<title>5</title>
<ellipse fill="none" stroke="black" cx="442" cy="-63" rx="18" ry="18"/>
<text text-anchor="middle" x="442" y="-59.3" font-family="Helvetica,Arial,sans-serif" font-size="14.00">5</text>
</g>
<!-- 4&#45;&gt;5 -->
<g id="edge5" class="edge">
<title>4&#45;&gt;5</title>
<path fill="none" stroke="black" d="M352.03,-63C368.62,-63 394.12,-63 413.57,-63"/>
<polygon fill="black" stroke="black" points="413.66,-66.5 423.66,-63 413.66,-59.5 413.66,-66.5"/>
<text text-anchor="middle" x="388" y="-66.8" font-family="Helvetica,Arial,sans-serif" font-size="14.00">(7,15)</text>
</g>
<!-- 0 -->
<g id="node6" class="node">
<title>0</title>
<ellipse fill="none" stroke="black" cx="18" cy="-18" rx="18" ry="18"/>
<text text-anchor="middle" x="18" y="-14.3" font-family="Helvetica,Arial,sans-serif" font-size="14.00">0</text>
</g>
<!-- 0&#45;&gt;1 -->
<g id="edge6" class="edge">
<title>0&#45;&gt;1</title>
<path fill="none" stroke="black" d="M36,-15.8C50.61,-14.47 72.1,-13.9 90,-19 94.22,-20.2 98.44,-22.05 102.42,-24.16"/>
<polygon fill="black" stroke="black" points="100.77,-27.25 111.15,-29.38 104.37,-21.24 100.77,-27.25"/>
<text text-anchor="middle" x="72" y="-22.8" font-family="Helvetica,Arial,sans-serif" font-size="14.00">(7,10)</text>
</g>
</g>
</svg>
