<?xml version="1.0" encoding="UTF-8" standalone="no"?>
<!DOCTYPE svg PUBLIC "-//W3C//DTD SVG 1.1//EN"
 "http://www.w3.org/Graphics/SVG/1.1/DTD/svg11.dtd">
<!-- Generated by graphviz version 2.43.0 (0)
 -->
<!-- Title: MyGraph Pages: 1 -->
<svg width="497pt" height="154pt"
 viewBox="0.00 0.00 497.00 154.00" xmlns="http://www.w3.org/2000/svg" xmlns:xlink="http://www.w3.org/1999/xlink">
<g id="graph0" class="graph" transform="scale(1 1) rotate(0) translate(4 150)">
<title>MyGraph</title>
<polygon fill="white" stroke="transparent" points="-4,4 -4,-150 493,-150 493,4 -4,4"/>
<!-- 0 -->
<g id="node1" class="node">
<title>0</title>
<ellipse fill="none" stroke="black" cx="18" cy="-77" rx="18" ry="18"/>
<text text-anchor="middle" x="18" y="-73.3" font-family="Helvetica,Arial,sans-serif" font-size="14.00">0</text>
</g>
<!-- 2 -->
<g id="node2" class="node">
<title>2</title>
<ellipse fill="none" stroke="black" cx="241" cy="-128" rx="18" ry="18"/>
<text text-anchor="middle" x="241" y="-124.3" font-family="Helvetica,Arial,sans-serif" font-size="14.00">2</text>
</g>
<!-- 0&#45;&gt;2 -->
<g id="edge1" class="edge">
<title>0&#45;&gt;2</title>
<path fill="none" stroke="black" d="M33.95,-86.15C40.01,-89.59 47.18,-93.31 54,-96 103.13,-115.41 116.71,-118.54 169,-126 183.31,-128.04 199.39,-128.63 212.63,-128.67"/>
<polygon fill="black" stroke="black" points="213.01,-132.17 222.98,-128.6 212.96,-125.17 213.01,-132.17"/>
<text text-anchor="middle" x="133" y="-126.8" font-family="Helvetica,Arial,sans-serif" font-size="14.00">(8,8)</text>
</g>
<!-- 3 -->
<g id="node3" class="node">
<title>3</title>
<ellipse fill="none" stroke="black" cx="133" cy="-77" rx="18" ry="18"/>
<text text-anchor="middle" x="133" y="-73.3" font-family="Helvetica,Arial,sans-serif" font-size="14.00">3</text>
</g>
<!-- 0&#45;&gt;3 -->
<g id="edge2" class="edge">
<title>0&#45;&gt;3</title>
<path fill="none" stroke="black" d="M36.16,-77C54.33,-77 83.28,-77 104.61,-77"/>
<polygon fill="black" stroke="black" points="104.68,-80.5 114.68,-77 104.68,-73.5 104.68,-80.5"/>
<text text-anchor="middle" x="75.5" y="-80.8" font-family="Helvetica,Arial,sans-serif" font-size="14.00">(10,10)</text>
</g>
<!-- 1 -->
<g id="node4" class="node">
<title>1</title>
<ellipse fill="none" stroke="black" cx="241" cy="-18" rx="18" ry="18"/>
<text text-anchor="middle" x="241" y="-14.3" font-family="Helvetica,Arial,sans-serif" font-size="14.00">1</text>
</g>
<!-- 0&#45;&gt;1 -->
<g id="edge3" class="edge">
<title>0&#45;&gt;1</title>
<path fill="none" stroke="black" d="M34.14,-68.8C52.66,-59.14 85.23,-43.36 115,-35 147.84,-25.78 186.99,-21.48 212.61,-19.54"/>
<polygon fill="black" stroke="black" points="212.98,-23.02 222.71,-18.84 212.49,-16.04 212.98,-23.02"/>
<text text-anchor="middle" x="133" y="-38.8" font-family="Helvetica,Arial,sans-serif" font-size="14.00">(7,7)</text>
</g>
<!-- 4 -->
<g id="node5" class="node">
<title>4</title>
<ellipse fill="none" stroke="black" cx="352.5" cy="-71" rx="18" ry="18"/>
<text text-anchor="middle" x="352.5" y="-67.3" font-family="Helvetica,Arial,sans-serif" font-size="14.00">4</text>
</g>
<!-- 2&#45;&gt;4 -->
<g id="edge4" class="edge">
<title>2&#45;&gt;4</title>
<path fill="none" stroke="black" d="M257.23,-120.07C275.27,-110.68 305.56,-94.91 326.94,-83.79"/>
<polygon fill="black" stroke="black" points="328.8,-86.76 336.05,-79.04 325.56,-80.55 328.8,-86.76"/>
<text text-anchor="middle" x="295" y="-112.8" font-family="Helvetica,Arial,sans-serif" font-size="14.00">(9,12)</text>
</g>
<!-- 3&#45;&gt;2 -->
<g id="edge6" class="edge">
<title>3&#45;&gt;2</title>
<path fill="none" stroke="black" d="M149.52,-84.4C163.92,-91.27 185.92,-101.8 205,-111 208.26,-112.57 211.69,-114.23 215.08,-115.88"/>
<polygon fill="black" stroke="black" points="213.8,-119.15 224.33,-120.37 216.86,-112.85 213.8,-119.15"/>
<text text-anchor="middle" x="187" y="-114.8" font-family="Helvetica,Arial,sans-serif" font-size="14.00">(1,2)</text>
</g>
<!-- 3&#45;&gt;1 -->
<g id="edge7" class="edge">
<title>3&#45;&gt;1</title>
<path fill="none" stroke="black" d="M146.61,-65.02C152.98,-59.37 161.04,-52.83 169,-48 183.17,-39.39 200.26,-32.09 214.12,-26.84"/>
<polygon fill="black" stroke="black" points="215.36,-30.11 223.56,-23.4 212.96,-23.54 215.36,-30.11"/>
<text text-anchor="middle" x="187" y="-51.8" font-family="Helvetica,Arial,sans-serif" font-size="14.00">(4,11)</text>
</g>
<!-- 3&#45;&gt;4 -->
<g id="edge5" class="edge">
<title>3&#45;&gt;4</title>
<path fill="none" stroke="black" d="M151.07,-76.53C188.61,-75.49 278.66,-73.01 324.17,-71.75"/>
<polygon fill="black" stroke="black" points="324.31,-75.25 334.21,-71.48 324.12,-68.25 324.31,-75.25"/>
<text text-anchor="middle" x="241" y="-77.8" font-family="Helvetica,Arial,sans-serif" font-size="14.00">(5,5)</text>
</g>
<!-- 1&#45;&gt;4 -->
<g id="edge8" class="edge">
<title>1&#45;&gt;4</title>
<path fill="none" stroke="black" d="M258.08,-24.06C272.66,-29.72 294.62,-38.68 313,-48 317.91,-50.49 323.04,-53.36 327.9,-56.2"/>
<polygon fill="black" stroke="black" points="326.41,-59.39 336.78,-61.55 330.02,-53.39 326.41,-59.39"/>
<text text-anchor="middle" x="295" y="-51.8" font-family="Helvetica,Arial,sans-serif" font-size="14.00">(0,1)</text>
</g>
<!-- 5 -->
<g id="node6" class="node">
<title>5</title>
<ellipse fill="none" stroke="black" cx="471" cy="-30" rx="18" ry="18"/>
<text text-anchor="middle" x="471" y="-26.3" font-family="Helvetica,Arial,sans-serif" font-size="14.00">5</text>
</g>
<!-- 1&#45;&gt;5 -->
<g id="edge9" class="edge">
<title>1&#45;&gt;5</title>
<path fill="none" stroke="black" d="M259.14,-18.9C298.43,-20.97 395.3,-26.07 442.82,-28.57"/>
<polygon fill="black" stroke="black" points="442.8,-32.07 452.98,-29.1 443.17,-25.08 442.8,-32.07"/>
<text text-anchor="middle" x="352.5" y="-28.8" font-family="Helvetica,Arial,sans-serif" font-size="14.00">(11,21)</text>
</g>
<!-- 4&#45;&gt;5 -->
<g id="edge10" class="edge">
<title>4&#45;&gt;5</title>
<path fill="none" stroke="black" d="M369.7,-65.3C388.89,-58.54 421.13,-47.2 443.87,-39.2"/>
<polygon fill="black" stroke="black" points="445.29,-42.41 453.56,-35.78 442.97,-35.8 445.29,-42.41"/>
<text text-anchor="middle" x="413.5" y="-59.8" font-family="Helvetica,Arial,sans-serif" font-size="14.00">(14,14)</text>
</g>
</g>
</svg>
