<?xml version="1.0" encoding="UTF-8" standalone="no"?>
<!DOCTYPE svg PUBLIC "-//W3C//DTD SVG 1.1//EN"
 "http://www.w3.org/Graphics/SVG/1.1/DTD/svg11.dtd">
<!-- Generated by graphviz version 2.43.0 (0)
 -->
<!-- Title: MyGraph Pages: 1 -->
<svg width="344pt" height="167pt"
 viewBox="0.00 0.00 344.00 167.00" xmlns="http://www.w3.org/2000/svg" xmlns:xlink="http://www.w3.org/1999/xlink">
<g id="graph0" class="graph" transform="scale(1 1) rotate(0) translate(4 163)">
<title>MyGraph</title>
<polygon fill="white" stroke="transparent" points="-4,4 -4,-163 340,-163 340,4 -4,4"/>
<!-- 7 -->
<g id="node1" class="node">
<title>7</title>
<ellipse fill="none" stroke="black" cx="218" cy="-75" rx="18" ry="18"/>
<text text-anchor="middle" x="218" y="-71.3" font-family="Helvetica,Arial,sans-serif" font-size="14.00">7</text>
</g>
<!-- 1 -->
<g id="node2" class="node">
<title>1</title>
<ellipse fill="none" stroke="black" cx="318" cy="-75" rx="18" ry="18"/>
<text text-anchor="middle" x="318" y="-71.3" font-family="Helvetica,Arial,sans-serif" font-size="14.00">1</text>
</g>
<!-- 7&#45;&gt;1 -->
<g id="edge1" class="edge">
<title>7&#45;&gt;1</title>
<path fill="none" stroke="black" d="M236.07,-75C250.88,-75 272.57,-75 289.77,-75"/>
<polygon fill="black" stroke="black" points="289.8,-78.5 299.8,-75 289.8,-71.5 289.8,-78.5"/>
<text text-anchor="middle" x="268" y="-78.8" font-family="Helvetica,Arial,sans-serif" font-size="14.00">(1,1)</text>
</g>
<!-- 6 -->
<g id="node3" class="node">
<title>6</title>
<ellipse fill="none" stroke="black" cx="218" cy="-131" rx="18" ry="18"/>
<text text-anchor="middle" x="218" y="-127.3" font-family="Helvetica,Arial,sans-serif" font-size="14.00">6</text>
</g>
<!-- 6&#45;&gt;1 -->
<g id="edge2" class="edge">
<title>6&#45;&gt;1</title>
<path fill="none" stroke="black" d="M233.88,-122.49C249.64,-113.49 274.74,-99.15 293.24,-88.58"/>
<polygon fill="black" stroke="black" points="295.03,-91.59 301.98,-83.59 291.56,-85.51 295.03,-91.59"/>
<text text-anchor="middle" x="268" y="-112.8" font-family="Helvetica,Arial,sans-serif" font-size="14.00">(1,1)</text>
</g>
<!-- 5 -->
<g id="node4" class="node">
<title>5</title>
<ellipse fill="none" stroke="black" cx="218" cy="-18" rx="18" ry="18"/>
<text text-anchor="middle" x="218" y="-14.3" font-family="Helvetica,Arial,sans-serif" font-size="14.00">5</text>
</g>
<!-- 5&#45;&gt;1 -->
<g id="edge3" class="edge">
<title>5&#45;&gt;1</title>
<path fill="none" stroke="black" d="M233.88,-26.66C249.64,-35.82 274.74,-50.42 293.24,-61.18"/>
<polygon fill="black" stroke="black" points="291.57,-64.26 301.98,-66.26 295.09,-58.21 291.57,-64.26"/>
<text text-anchor="middle" x="268" y="-56.8" font-family="Helvetica,Arial,sans-serif" font-size="14.00">(1,1)</text>
</g>
<!-- 4 -->
<g id="node5" class="node">
<title>4</title>
<ellipse fill="none" stroke="black" cx="118" cy="-87" rx="18" ry="18"/>
<text text-anchor="middle" x="118" y="-83.3" font-family="Helvetica,Arial,sans-serif" font-size="14.00">4</text>
</g>
<!-- 4&#45;&gt;7 -->
<g id="edge4" class="edge">
<title>4&#45;&gt;7</title>
<path fill="none" stroke="black" d="M136.07,-84.91C150.88,-83.1 172.57,-80.44 189.77,-78.33"/>
<polygon fill="black" stroke="black" points="190.3,-81.8 199.8,-77.11 189.45,-74.85 190.3,-81.8"/>
<text text-anchor="middle" x="168" y="-85.8" font-family="Helvetica,Arial,sans-serif" font-size="14.00">(1,1)</text>
</g>
<!-- 3 -->
<g id="node6" class="node">
<title>3</title>
<ellipse fill="none" stroke="black" cx="118" cy="-141" rx="18" ry="18"/>
<text text-anchor="middle" x="118" y="-137.3" font-family="Helvetica,Arial,sans-serif" font-size="14.00">3</text>
</g>
<!-- 3&#45;&gt;6 -->
<g id="edge5" class="edge">
<title>3&#45;&gt;6</title>
<path fill="none" stroke="black" d="M136.07,-139.26C150.88,-137.75 172.57,-135.53 189.77,-133.78"/>
<polygon fill="black" stroke="black" points="190.2,-137.25 199.8,-132.76 189.49,-130.29 190.2,-137.25"/>
<text text-anchor="middle" x="168" y="-140.8" font-family="Helvetica,Arial,sans-serif" font-size="14.00">(1,1)</text>
</g>
<!-- 2 -->
<g id="node7" class="node">
<title>2</title>
<ellipse fill="none" stroke="black" cx="118" cy="-33" rx="18" ry="18"/>
<text text-anchor="middle" x="118" y="-29.3" font-family="Helvetica,Arial,sans-serif" font-size="14.00">2</text>
</g>
<!-- 2&#45;&gt;7 -->
<g id="edge6" class="edge">
<title>2&#45;&gt;7</title>
<path fill="none" stroke="black" d="M134.75,-39.75C150.18,-46.36 173.94,-56.54 191.96,-64.27"/>
<polygon fill="black" stroke="black" points="190.72,-67.55 201.29,-68.27 193.48,-61.11 190.72,-67.55"/>
<text text-anchor="middle" x="168" y="-61.8" font-family="Helvetica,Arial,sans-serif" font-size="14.00">(0,1)</text>
</g>
<!-- 2&#45;&gt;5 -->
<g id="edge7" class="edge">
<title>2&#45;&gt;5</title>
<path fill="none" stroke="black" d="M133.78,-23.98C139.82,-20.8 147.02,-17.61 154,-16 165.64,-13.32 178.8,-13.29 190.08,-14.14"/>
<polygon fill="black" stroke="black" points="189.89,-17.64 200.19,-15.16 190.6,-10.67 189.89,-17.64"/>
<text text-anchor="middle" x="168" y="-19.8" font-family="Helvetica,Arial,sans-serif" font-size="14.00">(1,1)</text>
</g>
<!-- 0 -->
<g id="node8" class="node">
<title>0</title>
<ellipse fill="none" stroke="black" cx="18" cy="-87" rx="18" ry="18"/>
<text text-anchor="middle" x="18" y="-83.3" font-family="Helvetica,Arial,sans-serif" font-size="14.00">0</text>
</g>
<!-- 0&#45;&gt;4 -->
<g id="edge8" class="edge">
<title>0&#45;&gt;4</title>
<path fill="none" stroke="black" d="M36.07,-87C50.88,-87 72.57,-87 89.77,-87"/>
<polygon fill="black" stroke="black" points="89.8,-90.5 99.8,-87 89.8,-83.5 89.8,-90.5"/>
<text text-anchor="middle" x="68" y="-90.8" font-family="Helvetica,Arial,sans-serif" font-size="14.00">(1,1)</text>
</g>
<!-- 0&#45;&gt;3 -->
<g id="edge9" class="edge">
<title>0&#45;&gt;3</title>
<path fill="none" stroke="black" d="M34.31,-95.44C49.99,-104.08 74.59,-117.63 92.88,-127.71"/>
<polygon fill="black" stroke="black" points="91.35,-130.86 101.8,-132.62 94.73,-124.73 91.35,-130.86"/>
<text text-anchor="middle" x="68" y="-123.8" font-family="Helvetica,Arial,sans-serif" font-size="14.00">(1,1)</text>
</g>
<!-- 0&#45;&gt;2 -->
<g id="edge10" class="edge">
<title>0&#45;&gt;2</title>
<path fill="none" stroke="black" d="M34.31,-78.56C49.99,-69.92 74.59,-56.37 92.88,-46.29"/>
<polygon fill="black" stroke="black" points="94.73,-49.27 101.8,-41.38 91.35,-43.14 94.73,-49.27"/>
<text text-anchor="middle" x="68" y="-69.8" font-family="Helvetica,Arial,sans-serif" font-size="14.00">(1,1)</text>
</g>
</g>
</svg>
