<?xml version="1.0" encoding="UTF-8" standalone="no"?>
<!DOCTYPE svg PUBLIC "-//W3C//DTD SVG 1.1//EN"
 "http://www.w3.org/Graphics/SVG/1.1/DTD/svg11.dtd">
<!-- Generated by graphviz version 2.43.0 (0)
 -->
<!-- Title: MyGraph Pages: 1 -->
<svg width="396pt" height="201pt"
 viewBox="0.00 0.00 396.00 201.00" xmlns="http://www.w3.org/2000/svg" xmlns:xlink="http://www.w3.org/1999/xlink">
<g id="graph0" class="graph" transform="scale(1 1) rotate(0) translate(4 197)">
<title>MyGraph</title>
<polygon fill="white" stroke="transparent" points="-4,4 -4,-197 392,-197 392,4 -4,4"/>
<!-- 4 -->
<g id="node1" class="node">
<title>4</title>
<ellipse fill="none" stroke="black" cx="282" cy="-77" rx="18" ry="18"/>
<text text-anchor="middle" x="282" y="-73.3" font-family="Helvetica,Arial,sans-serif" font-size="14.00">4</text>
</g>
<!-- 5 -->
<g id="node2" class="node">
<title>5</title>
<ellipse fill="none" stroke="black" cx="370" cy="-135" rx="18" ry="18"/>
<text text-anchor="middle" x="370" y="-131.3" font-family="Helvetica,Arial,sans-serif" font-size="14.00">5</text>
</g>
<!-- 4&#45;&gt;5 -->
<g id="edge1" class="edge">
<title>4&#45;&gt;5</title>
<path fill="none" stroke="black" d="M298.6,-84.95C308.92,-90.43 322.6,-98.13 334,-106 338.79,-109.31 343.72,-113.12 348.32,-116.86"/>
<polygon fill="black" stroke="black" points="346.22,-119.67 356.13,-123.42 350.72,-114.31 346.22,-119.67"/>
<text text-anchor="middle" x="326" y="-109.8" font-family="Helvetica,Arial,sans-serif" font-size="14.00">14</text>
</g>
<!-- 1 -->
<g id="node3" class="node">
<title>1</title>
<ellipse fill="none" stroke="black" cx="194" cy="-124" rx="18" ry="18"/>
<text text-anchor="middle" x="194" y="-120.3" font-family="Helvetica,Arial,sans-serif" font-size="14.00">1</text>
</g>
<!-- 1&#45;&gt;4 -->
<g id="edge3" class="edge">
<title>1&#45;&gt;4</title>
<path fill="none" stroke="black" d="M210.38,-115.6C223.22,-108.58 241.76,-98.45 256.62,-90.32"/>
<polygon fill="black" stroke="black" points="258.66,-93.2 265.76,-85.33 255.3,-87.05 258.66,-93.2"/>
<text text-anchor="middle" x="238" y="-107.8" font-family="Helvetica,Arial,sans-serif" font-size="14.00">1</text>
</g>
<!-- 1&#45;&gt;5 -->
<g id="edge2" class="edge">
<title>1&#45;&gt;5</title>
<path fill="none" stroke="black" d="M212,-125.07C242.15,-126.98 305.21,-130.97 341.57,-133.27"/>
<polygon fill="black" stroke="black" points="341.73,-136.78 351.93,-133.92 342.17,-129.8 341.73,-136.78"/>
<text text-anchor="middle" x="282" y="-133.8" font-family="Helvetica,Arial,sans-serif" font-size="14.00">21</text>
</g>
<!-- 3 -->
<g id="node4" class="node">
<title>3</title>
<ellipse fill="none" stroke="black" cx="106" cy="-76" rx="18" ry="18"/>
<text text-anchor="middle" x="106" y="-72.3" font-family="Helvetica,Arial,sans-serif" font-size="14.00">3</text>
</g>
<!-- 3&#45;&gt;4 -->
<g id="edge6" class="edge">
<title>3&#45;&gt;4</title>
<path fill="none" stroke="black" d="M124,-76.1C154.15,-76.27 217.21,-76.63 253.57,-76.84"/>
<polygon fill="black" stroke="black" points="253.91,-80.34 263.93,-76.9 253.95,-73.34 253.91,-80.34"/>
<text text-anchor="middle" x="194" y="-79.8" font-family="Helvetica,Arial,sans-serif" font-size="14.00">5</text>
</g>
<!-- 3&#45;&gt;1 -->
<g id="edge4" class="edge">
<title>3&#45;&gt;1</title>
<path fill="none" stroke="black" d="M121.98,-84.36C134.97,-91.61 154.01,-102.24 169.1,-110.66"/>
<polygon fill="black" stroke="black" points="167.47,-113.76 177.9,-115.57 170.88,-107.64 167.47,-113.76"/>
<text text-anchor="middle" x="150" y="-107.8" font-family="Helvetica,Arial,sans-serif" font-size="14.00">11</text>
</g>
<!-- 2 -->
<g id="node5" class="node">
<title>2</title>
<ellipse fill="none" stroke="black" cx="194" cy="-18" rx="18" ry="18"/>
<text text-anchor="middle" x="194" y="-14.3" font-family="Helvetica,Arial,sans-serif" font-size="14.00">2</text>
</g>
<!-- 3&#45;&gt;2 -->
<g id="edge5" class="edge">
<title>3&#45;&gt;2</title>
<path fill="none" stroke="black" d="M118.85,-63.11C125.28,-56.57 133.62,-48.8 142,-43 149.81,-37.59 158.96,-32.71 167.34,-28.73"/>
<polygon fill="black" stroke="black" points="169.03,-31.81 176.69,-24.49 166.14,-25.43 169.03,-31.81"/>
<text text-anchor="middle" x="150" y="-46.8" font-family="Helvetica,Arial,sans-serif" font-size="14.00">2</text>
</g>
<!-- 2&#45;&gt;4 -->
<g id="edge7" class="edge">
<title>2&#45;&gt;4</title>
<path fill="none" stroke="black" d="M210.88,-24.24C221.33,-28.71 235.03,-35.28 246,-43 251.55,-46.9 257.05,-51.69 261.99,-56.43"/>
<polygon fill="black" stroke="black" points="259.68,-59.07 269.22,-63.7 264.65,-54.14 259.68,-59.07"/>
<text text-anchor="middle" x="238" y="-46.8" font-family="Helvetica,Arial,sans-serif" font-size="14.00">12</text>
</g>
<!-- 0 -->
<g id="node6" class="node">
<title>0</title>
<ellipse fill="none" stroke="black" cx="18" cy="-113" rx="18" ry="18"/>
<text text-anchor="middle" x="18" y="-109.3" font-family="Helvetica,Arial,sans-serif" font-size="14.00">0</text>
</g>
<!-- 0&#45;&gt;5 -->
<g id="edge11" class="edge">
<title>0&#45;&gt;5</title>
<path fill="none" stroke="black" d="M28.81,-127.43C43.12,-146.58 71.69,-178 105,-178 105,-178 105,-178 283,-178 306.8,-178 330.77,-164.66 347.34,-152.84"/>
<polygon fill="black" stroke="black" points="349.84,-155.33 355.73,-146.52 345.63,-149.74 349.84,-155.33"/>
<text text-anchor="middle" x="194" y="-181.8" font-family="Helvetica,Arial,sans-serif" font-size="14.00">15</text>
</g>
<!-- 0&#45;&gt;1 -->
<g id="edge8" class="edge">
<title>0&#45;&gt;1</title>
<path fill="none" stroke="black" d="M36.08,-114.56C41.78,-115.06 48.16,-115.58 54,-116 92.74,-118.77 137.6,-121.22 165.65,-122.65"/>
<polygon fill="black" stroke="black" points="165.71,-126.16 175.87,-123.17 166.06,-119.17 165.71,-126.16"/>
<text text-anchor="middle" x="106" y="-123.8" font-family="Helvetica,Arial,sans-serif" font-size="14.00">7</text>
</g>
<!-- 0&#45;&gt;3 -->
<g id="edge9" class="edge">
<title>0&#45;&gt;3</title>
<path fill="none" stroke="black" d="M34.77,-106.21C47.3,-100.82 65.07,-93.18 79.6,-86.93"/>
<polygon fill="black" stroke="black" points="81.23,-90.04 89.04,-82.87 78.47,-83.61 81.23,-90.04"/>
<text text-anchor="middle" x="62" y="-100.8" font-family="Helvetica,Arial,sans-serif" font-size="14.00">10</text>
</g>
<!-- 0&#45;&gt;2 -->
<g id="edge10" class="edge">
<title>0&#45;&gt;2</title>
<path fill="none" stroke="black" d="M27.74,-97.61C39.09,-79.2 60.7,-48.98 88,-34 112.03,-20.81 143.56,-17.54 165.78,-17.12"/>
<polygon fill="black" stroke="black" points="165.87,-20.62 175.86,-17.11 165.86,-13.62 165.87,-20.62"/>
<text text-anchor="middle" x="106" y="-37.8" font-family="Helvetica,Arial,sans-serif" font-size="14.00">8</text>
</g>
</g>
</svg>
