<?xml version="1.0" encoding="UTF-8" standalone="no"?>
<!DOCTYPE svg PUBLIC "-//W3C//DTD SVG 1.1//EN"
 "http://www.w3.org/Graphics/SVG/1.1/DTD/svg11.dtd">
<!-- Generated by graphviz version 2.43.0 (0)
 -->
<!-- Title: MyGraph Pages: 1 -->
<svg width="344pt" height="263pt"
 viewBox="0.00 0.00 344.00 263.00" xmlns="http://www.w3.org/2000/svg" xmlns:xlink="http://www.w3.org/1999/xlink">
<g id="graph0" class="graph" transform="scale(1 1) rotate(0) translate(4 259)">
<title>MyGraph</title>
<polygon fill="white" stroke="transparent" points="-4,4 -4,-259 340,-259 340,4 -4,4"/>
<!-- 9 -->
<g id="node1" class="node">
<title>9</title>
<ellipse fill="none" stroke="black" cx="218" cy="-32" rx="18" ry="18"/>
<text text-anchor="middle" x="218" y="-28.3" font-family="Helvetica,Arial,sans-serif" font-size="14.00">9</text>
</g>
<!-- 1 -->
<g id="node2" class="node">
<title>1</title>
<ellipse fill="none" stroke="black" cx="318" cy="-113" rx="18" ry="18"/>
<text text-anchor="middle" x="318" y="-109.3" font-family="Helvetica,Arial,sans-serif" font-size="14.00">1</text>
</g>
<!-- 9&#45;&gt;1 -->
<g id="edge1" class="edge">
<title>9&#45;&gt;1</title>
<path fill="none" stroke="black" d="M234.06,-40.22C247.36,-47.83 266.92,-59.92 282,-73 288.13,-78.32 294.19,-84.71 299.49,-90.8"/>
<polygon fill="black" stroke="black" points="297.09,-93.39 306.19,-98.8 302.45,-88.89 297.09,-93.39"/>
<text text-anchor="middle" x="268" y="-76.8" font-family="Helvetica,Arial,sans-serif" font-size="14.00">(1,1)</text>
</g>
<!-- 8 -->
<g id="node3" class="node">
<title>8</title>
<ellipse fill="none" stroke="black" cx="218" cy="-222" rx="18" ry="18"/>
<text text-anchor="middle" x="218" y="-218.3" font-family="Helvetica,Arial,sans-serif" font-size="14.00">8</text>
</g>
<!-- 8&#45;&gt;1 -->
<g id="edge2" class="edge">
<title>8&#45;&gt;1</title>
<path fill="none" stroke="black" d="M230.63,-209.07C247.42,-190.38 278.65,-155.65 298.6,-133.47"/>
<polygon fill="black" stroke="black" points="301.31,-135.69 305.39,-125.91 296.1,-131.01 301.31,-135.69"/>
<text text-anchor="middle" x="268" y="-183.8" font-family="Helvetica,Arial,sans-serif" font-size="14.00">(1,1)</text>
</g>
<!-- 7 -->
<g id="node4" class="node">
<title>7</title>
<ellipse fill="none" stroke="black" cx="218" cy="-86" rx="18" ry="18"/>
<text text-anchor="middle" x="218" y="-82.3" font-family="Helvetica,Arial,sans-serif" font-size="14.00">7</text>
</g>
<!-- 7&#45;&gt;1 -->
<g id="edge3" class="edge">
<title>7&#45;&gt;1</title>
<path fill="none" stroke="black" d="M236.05,-88.68C248.84,-90.89 266.71,-94.4 282,-99 285.2,-99.96 288.51,-101.09 291.76,-102.29"/>
<polygon fill="black" stroke="black" points="290.59,-105.59 301.18,-105.98 293.15,-99.08 290.59,-105.59"/>
<text text-anchor="middle" x="268" y="-102.8" font-family="Helvetica,Arial,sans-serif" font-size="14.00">(1,1)</text>
</g>
<!-- 6 -->
<g id="node5" class="node">
<title>6</title>
<ellipse fill="none" stroke="black" cx="218" cy="-140" rx="18" ry="18"/>
<text text-anchor="middle" x="218" y="-136.3" font-family="Helvetica,Arial,sans-serif" font-size="14.00">6</text>
</g>
<!-- 6&#45;&gt;1 -->
<g id="edge4" class="edge">
<title>6&#45;&gt;1</title>
<path fill="none" stroke="black" d="M235.62,-135.42C250.69,-131.27 273.14,-125.08 290.65,-120.26"/>
<polygon fill="black" stroke="black" points="291.58,-123.63 300.29,-117.6 289.72,-116.88 291.58,-123.63"/>
<text text-anchor="middle" x="268" y="-132.8" font-family="Helvetica,Arial,sans-serif" font-size="14.00">(1,1)</text>
</g>
<!-- 5 -->
<g id="node6" class="node">
<title>5</title>
<ellipse fill="none" stroke="black" cx="118" cy="-236" rx="18" ry="18"/>
<text text-anchor="middle" x="118" y="-232.3" font-family="Helvetica,Arial,sans-serif" font-size="14.00">5</text>
</g>
<!-- 5&#45;&gt;8 -->
<g id="edge5" class="edge">
<title>5&#45;&gt;8</title>
<path fill="none" stroke="black" d="M136.05,-238.77C148.84,-240.32 166.71,-241.33 182,-238 185.5,-237.24 189.07,-236.09 192.53,-234.76"/>
<polygon fill="black" stroke="black" points="194.08,-237.9 201.82,-230.66 191.25,-231.49 194.08,-237.9"/>
<text text-anchor="middle" x="168" y="-243.8" font-family="Helvetica,Arial,sans-serif" font-size="14.00">(1,1)</text>
</g>
<!-- 4 -->
<g id="node7" class="node">
<title>4</title>
<ellipse fill="none" stroke="black" cx="118" cy="-18" rx="18" ry="18"/>
<text text-anchor="middle" x="118" y="-14.3" font-family="Helvetica,Arial,sans-serif" font-size="14.00">4</text>
</g>
<!-- 4&#45;&gt;7 -->
<g id="edge6" class="edge">
<title>4&#45;&gt;7</title>
<path fill="none" stroke="black" d="M135.68,-13.68C149.28,-11.17 168.38,-10.04 182,-19 198.29,-29.71 190.78,-41.82 200,-59 200.62,-60.15 201.27,-61.32 201.94,-62.5"/>
<polygon fill="black" stroke="black" points="199.12,-64.6 207.27,-71.37 205.12,-60.99 199.12,-64.6"/>
<text text-anchor="middle" x="168" y="-22.8" font-family="Helvetica,Arial,sans-serif" font-size="14.00">(1,1)</text>
</g>
<!-- 3 -->
<g id="node8" class="node">
<title>3</title>
<ellipse fill="none" stroke="black" cx="118" cy="-94" rx="18" ry="18"/>
<text text-anchor="middle" x="118" y="-90.3" font-family="Helvetica,Arial,sans-serif" font-size="14.00">3</text>
</g>
<!-- 3&#45;&gt;9 -->
<g id="edge9" class="edge">
<title>3&#45;&gt;9</title>
<path fill="none" stroke="black" d="M127.47,-78.52C133.61,-68.69 142.79,-56.45 154,-49 164.62,-41.94 178.08,-37.8 189.83,-35.38"/>
<polygon fill="black" stroke="black" points="190.76,-38.77 200,-33.61 189.55,-31.88 190.76,-38.77"/>
<text text-anchor="middle" x="168" y="-52.8" font-family="Helvetica,Arial,sans-serif" font-size="14.00">(1,1)</text>
</g>
<!-- 3&#45;&gt;7 -->
<g id="edge8" class="edge">
<title>3&#45;&gt;7</title>
<path fill="none" stroke="black" d="M132.36,-82.57C138.52,-78.03 146.2,-73.33 154,-71 165.92,-67.43 169.81,-68.5 182,-71 185.47,-71.71 189.03,-72.79 192.47,-74.04"/>
<polygon fill="black" stroke="black" points="191.18,-77.29 201.76,-77.88 193.86,-70.82 191.18,-77.29"/>
<text text-anchor="middle" x="168" y="-74.8" font-family="Helvetica,Arial,sans-serif" font-size="14.00">(0,1)</text>
</g>
<!-- 3&#45;&gt;6 -->
<g id="edge7" class="edge">
<title>3&#45;&gt;6</title>
<path fill="none" stroke="black" d="M136.1,-95.77C149.24,-97.67 167.53,-101.48 182,-109 187.54,-111.88 192.9,-115.82 197.71,-119.93"/>
<polygon fill="black" stroke="black" points="195.46,-122.63 205.18,-126.85 200.22,-117.49 195.46,-122.63"/>
<text text-anchor="middle" x="168" y="-112.8" font-family="Helvetica,Arial,sans-serif" font-size="14.00">(0,1)</text>
</g>
<!-- 2 -->
<g id="node9" class="node">
<title>2</title>
<ellipse fill="none" stroke="black" cx="118" cy="-159" rx="18" ry="18"/>
<text text-anchor="middle" x="118" y="-155.3" font-family="Helvetica,Arial,sans-serif" font-size="14.00">2</text>
</g>
<!-- 2&#45;&gt;8 -->
<g id="edge11" class="edge">
<title>2&#45;&gt;8</title>
<path fill="none" stroke="black" d="M133.2,-168.96C139.52,-173.34 147.09,-178.49 154,-183 166.84,-191.37 181.37,-200.4 193.25,-207.66"/>
<polygon fill="black" stroke="black" points="191.75,-210.84 202.11,-213.05 195.39,-204.86 191.75,-210.84"/>
<text text-anchor="middle" x="168" y="-203.8" font-family="Helvetica,Arial,sans-serif" font-size="14.00">(0,1)</text>
</g>
<!-- 2&#45;&gt;7 -->
<g id="edge10" class="edge">
<title>2&#45;&gt;7</title>
<path fill="none" stroke="black" d="M134.87,-151.94C148.16,-145.63 167.25,-135.61 182,-124 188.2,-119.12 194.28,-113.1 199.58,-107.31"/>
<polygon fill="black" stroke="black" points="202.31,-109.5 206.27,-99.67 197.04,-104.89 202.31,-109.5"/>
<text text-anchor="middle" x="168" y="-144.8" font-family="Helvetica,Arial,sans-serif" font-size="14.00">(0,1)</text>
</g>
<!-- 2&#45;&gt;6 -->
<g id="edge12" class="edge">
<title>2&#45;&gt;6</title>
<path fill="none" stroke="black" d="M135.66,-162.68C148.56,-164.85 166.74,-166.4 182,-162 186.47,-160.71 190.91,-158.67 195.06,-156.34"/>
<polygon fill="black" stroke="black" points="197,-159.25 203.57,-150.94 193.25,-153.34 197,-159.25"/>
<text text-anchor="middle" x="168" y="-167.8" font-family="Helvetica,Arial,sans-serif" font-size="14.00">(1,1)</text>
</g>
<!-- 0 -->
<g id="node10" class="node">
<title>0</title>
<ellipse fill="none" stroke="black" cx="18" cy="-121" rx="18" ry="18"/>
<text text-anchor="middle" x="18" y="-117.3" font-family="Helvetica,Arial,sans-serif" font-size="14.00">0</text>
</g>
<!-- 0&#45;&gt;5 -->
<g id="edge13" class="edge">
<title>0&#45;&gt;5</title>
<path fill="none" stroke="black" d="M30.29,-134.67C37.12,-142.91 46.02,-153.59 54,-163 68.93,-180.61 86.06,-200.44 98.69,-214.98"/>
<polygon fill="black" stroke="black" points="96.35,-217.62 105.55,-222.87 101.63,-213.03 96.35,-217.62"/>
<text text-anchor="middle" x="68" y="-198.8" font-family="Helvetica,Arial,sans-serif" font-size="14.00">(1,1)</text>
</g>
<!-- 0&#45;&gt;4 -->
<g id="edge14" class="edge">
<title>0&#45;&gt;4</title>
<path fill="none" stroke="black" d="M31.02,-108.37C47.69,-90.84 78.04,-58.95 97.86,-38.12"/>
<polygon fill="black" stroke="black" points="100.53,-40.39 104.88,-30.73 95.46,-35.57 100.53,-40.39"/>
<text text-anchor="middle" x="68" y="-84.8" font-family="Helvetica,Arial,sans-serif" font-size="14.00">(1,1)</text>
</g>
<!-- 0&#45;&gt;3 -->
<g id="edge15" class="edge">
<title>0&#45;&gt;3</title>
<path fill="none" stroke="black" d="M35.62,-116.42C50.69,-112.27 73.14,-106.08 90.65,-101.26"/>
<polygon fill="black" stroke="black" points="91.58,-104.63 100.29,-98.6 89.72,-97.88 91.58,-104.63"/>
<text text-anchor="middle" x="68" y="-113.8" font-family="Helvetica,Arial,sans-serif" font-size="14.00">(1,1)</text>
</g>
<!-- 0&#45;&gt;2 -->
<g id="edge16" class="edge">
<title>0&#45;&gt;2</title>
<path fill="none" stroke="black" d="M35.18,-127.27C50.36,-133.16 73.32,-142.06 91.05,-148.94"/>
<polygon fill="black" stroke="black" points="90.2,-152.36 100.79,-152.72 92.74,-145.84 90.2,-152.36"/>
<text text-anchor="middle" x="68" y="-147.8" font-family="Helvetica,Arial,sans-serif" font-size="14.00">(1,1)</text>
</g>
</g>
</svg>
